{
  "accessors": [
    {
      "bufferView": 2,
      "componentType": 5126,
      "count": 162,
      "max": [
        9.413431167602539,
        7.8138427734375,
        13.248189926147461
      ],
      "min": [
        -9.411590576171875,
        -7.7925567626953125,
        -0.14244680106639862
      ],
      "type": "VEC3"
    },
    {
      "bufferView": 2,
      "byteOffset": 1944,
      "componentType": 5126,
      "count": 162,
      "max": [
        0.8919995427131653,
        1.0,
        0.8920004963874817
      ],
      "min": [
        -0.8920021057128906,
        -1.0,
        -0.8919969201087952
      ],
      "type": "VEC3"
    },
    {
      "bufferView": 1,
      "componentType": 5126,
      "count": 162,
      "max": [
        0.9996625185012817,
        0.44559529423713684
      ],
      "min": [
        0.7850419282913208,
        0.001421038992702961
      ],
      "type": "VEC2"
    },
    {
      "bufferView": 0,
      "componentType": 5125,
      "count": 378,
      "type": "SCALAR"
    }
  ],
  "asset": {
    "extras": {
      "author": "Crane Systems Australia Pty. Ltd (https://sketchfab.com/CraneSystemsau02)",
      "license": "CC-BY-4.0 (http://creativecommons.org/licenses/by/4.0/)",
      "source": "https://sketchfab.com/3d-models/blocker-jump-39b7446e842c464bb2fd0267684dd314",
      "title": "Blocker Jump"
    },
    "generator": "Sketchfab-15.53.0",
    "version": "2.0"
  },
  "bufferViews": [
    {
      "buffer": 0,
      "byteLength": 1512,
      "name": "floatBufferViews",
      "target": 34963
    },
    {
      "buffer": 0,
      "byteLength": 1296,
      "byteOffset": 1512,
      "byteStride": 8,
      "name": "floatBufferViews",
      "target": 34962
    },
    {
      "buffer": 0,
      "byteLength": 3888,
      "byteOffset": 2808,
      "byteStride": 12,
      "name": "floatBufferViews",
      "target": 34962
    }
  ],
  "buffers": [
    {
      "byteLength": 6696,
      "uri": "scene.bin"
    }
  ],
  "images": [
    {
      "uri": "textures/material_0_baseColor.png"
    }
  ],
  "materials": [
    {
      "doubleSided": true,
      "name": "material_0",
      "pbrMetallicRoughness": {
        "baseColorTexture": {
          "index": 0
        },
        "metallicFactor": 0.0,
        "roughnessFactor": 0.6
      }
    }
  ],
  "meshes": [
    {
      "name": "Object_0",
      "primitives": [
        {
          "attributes": {
            "NORMAL": 1,
            "POSITION": 0,
            "TEXCOORD_0": 2
          },
          "indices": 3,
          "material": 0,
          "mode": 4
        }
      ]
    }
  ],
  "nodes": [
    {
      "children": [
        1
      ],
      "matrix": [
        1.0,
        0.0,
        0.0,
        0.0,
        0.0,
        2.220446049250313e-16,
        -1.0,
        0.0,
        0.0,
        1.0,
        2.220446049250313e-16,
        0.0,
        0.0,
        0.0,
        0.0,
        1.0
      ],
      "name": "Sketchfab_model"
    },
    {
      "children": [
        2
      ],
      "name": "87146e73dca546208fa8231c98f48f8e.obj.cleaner.materialmerger.gles"
    },
    {
      "mesh": 0,
      "name": "Object_2"
    }
  ],
  "samplers": [
    {
      "magFilter": 9729,
      "minFilter": 9987,
      "wrapS": 10497,
      "wrapT": 10497
    }
  ],
  "scene": 0,
  "scenes": [
    {
      "name": "Sketchfab_Scene",
      "nodes": [
        0
      ]
    }
  ],
  "textures": [
    {
      "sampler": 0,
      "source": 0
    }
  ]
}
